<?xml version="1.0" standalone="no"?>
<!DOCTYPE svg PUBLIC "-//W3C//DTD SVG 20010904//EN"
 "http://www.w3.org/TR/2001/REC-SVG-20010904/DTD/svg10.dtd">
<svg version="1.0" xmlns="http://www.w3.org/2000/svg"
 width="16.000000pt" height="16.000000pt" viewBox="0 0 16.000000 16.000000"
 preserveAspectRatio="xMidYMid meet">
<metadata>
Created by potrace 1.11, written by Peter Selinger 2001-2013
</metadata>
<g transform="translate(0.000000,16.000000) scale(0.007273,-0.007273)"
fill="#000000" stroke="none">
<path d="M740 1590 l0 -370 50 0 50 0 0 175 0 175 125 0 125 0 0 -175 0 -175
50 0 50 0 0 175 0 175 100 0 100 0 -1 -232 c0 -271 -6 -320 -41 -355 -21 -20
-35 -25 -74 -25 -27 0 -68 7 -91 16 l-43 15 0 -44 c0 -24 5 -47 11 -51 6 -4
51 -9 99 -12 114 -6 166 16 208 86 l27 47 3 313 3 312 -150 0 -151 0 0 160 0
160 -50 0 -50 0 0 -160 0 -160 -125 0 -125 0 0 160 0 160 -50 0 -50 0 0 -370z"/>
<path d="M1230 442 l0 -37 -43 3 c-56 5 -80 -20 -80 -83 0 -68 21 -85 100 -83
l63 2 0 118 c0 111 -1 118 -20 118 -16 0 -20 -7 -20 -38z m-12 -74 c13 -13 16
-56 6 -82 -7 -19 -55 -21 -72 -4 -16 16 -16 70 0 86 7 7 21 12 33 12 12 0 26
-5 33 -12z"/>
<path d="M1487 474 c-14 -15 -6 -34 14 -34 14 0 19 5 17 17 -3 18 -20 27 -31
17z"/>
<path d="M130 355 c0 -96 3 -115 15 -115 11 0 15 12 15 50 l0 50 60 0 60 0 0
-50 c0 -38 4 -50 15 -50 12 0 15 19 15 115 0 96 -3 115 -15 115 -11 0 -15 -12
-15 -50 l0 -50 -60 0 -60 0 0 50 c0 38 -4 50 -15 50 -12 0 -15 -19 -15 -115z"/>
<path d="M1400 356 c0 -63 -3 -121 -6 -130 -3 -9 -17 -16 -30 -16 -15 0 -24
-6 -24 -15 0 -24 67 -20 80 4 5 11 10 76 10 145 0 105 -2 126 -15 126 -12 0
-15 -19 -15 -114z"/>
<path d="M374 389 c-25 -28 -24 -101 1 -129 25 -28 95 -28 121 1 26 29 26 99
0 128 -26 29 -96 29 -122 0z m94 -21 c7 -7 12 -26 12 -43 0 -36 -15 -55 -45
-55 -30 0 -45 19 -45 55 0 36 15 55 45 55 12 0 26 -5 33 -12z"/>
<path d="M533 398 c2 -7 13 -46 23 -85 15 -61 22 -73 39 -73 17 0 25 12 41 62
l20 62 18 -62 c16 -51 23 -62 40 -62 18 0 24 11 40 73 10 39 21 78 23 85 3 7
-3 12 -14 12 -16 0 -22 -11 -32 -55 -7 -30 -16 -53 -21 -50 -4 3 -13 27 -20
55 -10 41 -16 50 -34 50 -18 0 -25 -9 -35 -50 -7 -27 -16 -52 -20 -55 -5 -2
-14 20 -21 50 -10 43 -17 55 -33 55 -11 0 -17 -5 -14 -12z"/>
<path d="M815 399 c-11 -17 3 -23 45 -20 35 2 40 0 40 -18 0 -17 -6 -21 -33
-21 -42 0 -77 -25 -77 -54 0 -36 21 -46 88 -44 l62 2 0 63 c0 89 -9 103 -70
103 -27 0 -52 -5 -55 -11z m83 -101 c-2 -18 -11 -24 -35 -26 -27 -3 -33 0 -33
17 0 18 13 25 58 30 8 0 12 -7 10 -21z"/>
<path d="M980 325 c0 -78 2 -85 20 -85 18 0 20 7 20 58 0 63 11 82 47 82 14 0
23 6 23 15 0 18 -50 21 -68 3 -9 -9 -12 -9 -12 0 0 7 -7 12 -15 12 -12 0 -15
-16 -15 -85z"/>
<path d="M1480 325 c0 -78 2 -85 20 -85 18 0 20 7 20 85 0 78 -2 85 -20 85
-18 0 -20 -7 -20 -85z"/>
<path d="M1575 399 c-11 -17 3 -23 45 -20 35 2 40 0 40 -18 0 -17 -6 -21 -33
-21 -42 0 -77 -25 -77 -54 0 -36 21 -46 88 -44 l62 2 0 63 c0 89 -9 103 -70
103 -27 0 -52 -5 -55 -11z m83 -101 c-2 -18 -11 -24 -35 -26 -27 -3 -33 0 -33
17 0 18 13 25 58 30 8 0 12 -7 10 -21z"/>
<path d="M1740 323 c0 -76 2 -83 20 -83 18 0 20 7 20 59 0 64 13 85 52 79 21
-3 23 -9 26 -70 3 -60 5 -68 22 -68 18 0 20 7 20 63 0 92 -14 107 -96 105
l-64 -2 0 -83z"/>
<path d="M1952 398 c-14 -14 -16 -74 -4 -82 12 -7 2 -68 -14 -84 -37 -36 -1
-72 71 -72 62 0 85 16 85 61 0 30 -9 35 -75 41 -42 4 -40 32 2 36 39 4 56 23
55 62 0 20 4 30 14 30 8 0 14 5 14 10 0 14 -133 13 -148 -2z m82 -30 c8 -14 7
-21 -6 -34 -30 -30 -75 9 -48 42 16 18 39 15 54 -8z m24 -155 c-7 -36 -98 -37
-98 -2 0 16 8 19 51 19 42 0 50 -3 47 -17z"/>
</g>
</svg>
